Coordinates
version=1
nRows=14
nColumns=36
inDegrees=yes

Units are S.I. units (second, meters, Newtons, ...)
If the header above contains a line with 'inDegrees', this indicates whether rotational values are in degrees (yes) or radians (no).

endheader
time	pelvis_tilt	pelvis_list	pelvis_rotation	pelvis_tx	pelvis_ty	pelvis_tz	hip_flexion_r	hip_adduction_r	hip_rotation_r	knee_angle_r	knee_angle_r_beta	ankle_angle_r	subtalar_angle_r	mtp_angle_r	hip_flexion_l	hip_adduction_l	hip_rotation_l	knee_angle_l	knee_angle_l_beta	ankle_angle_l	subtalar_angle_l	mtp_angle_l	lumbar_extension	lumbar_bending	lumbar_rotation	arm_flex_r	arm_add_r	arm_rot_r	elbow_flex_r	pro_sup_r	arm_flex_l	arm_add_l	arm_rot_l	elbow_flex_l	pro_sup_l
      2.63333330	     -6.17980748	     -0.27292743	     21.46510968	     -0.12827942	      1.13327685	      0.08338285	      6.74021959	     -3.54557835	     -6.03157210	      0.29677680	      0.00517973	      9.51328300	     -3.00982390	     -7.49999987	     11.63997464	      2.00420777	     12.92369357	      0.51331384	      0.00895902	      3.90103656	      1.93179179	     -7.49999987	      5.07514340	     -4.79250856	     12.25591338	     -2.55771744	     -4.99215120	      3.03963001	     28.85696196	     82.95746716	     -1.63126583	     -6.30448788	     -9.63794049	     23.05545507	     79.00399715
      2.65000000	     -5.96234931	     -0.19304435	     21.23646640	     -0.12871464	      1.12991899	      0.08311829	      6.53142190	     -3.55595444	     -5.92301242	      0.31336054	      0.00546917	      9.52511384	     -2.96686774	     -7.49999987	     11.39052763	      2.00689761	     12.90192230	      0.59260195	      0.01034286	      3.91866295	      1.90059288	     -7.49999987	      5.49718605	     -4.63727811	     12.00028497	     -2.84118215	     -4.89964376	      3.08153102	     28.76951420	     83.00524353	     -1.21743946	     -6.48243443	     -9.67534937	     23.27947168	     79.04425389
      2.66666670	     -5.15755117	      0.12866515	     20.82645815	     -0.12537150	      1.13612784	      0.08106884	      5.53493633	     -3.55209823	     -5.67562084	      0.30654043	      0.00535014	      9.62105676	     -2.86973071	     -7.49999987	     10.32203874	      1.98006715	     12.84077296	      0.61944573	      0.01081137	      3.92261113	      1.57851310	     -7.49999987	      5.11880218	     -4.67605447	     11.84619907	     -2.87484850	     -4.66356658	      1.82983336	     28.08973377	     92.34111637	     -1.59352970	     -6.12784580	    -15.24381007	     25.33854121	     90.64008607
      2.68333330	     -4.84515984	      0.15512868	     20.23870565	     -0.13070709	      1.13452519	      0.08264412	      5.29991167	     -3.46333333	     -5.47021894	      0.32526379	      0.00567692	      9.50210063	     -2.77844275	     -7.49999987	     10.07804475	      1.86324906	     12.70141612	      0.76113113	      0.01328424	      4.09789216	      1.33799438	     -7.49999987	      5.24009073	     -4.41796481	     11.79402583	     -2.98764454	     -4.65643813	      1.85086254	     28.03837460	     92.34732546	     -1.29412117	     -6.25551354	    -15.26000245	     25.59458543	     90.63943809
      2.70000000	     -4.08485658	      0.42790592	     19.57169721	     -0.13239086	      1.13727270	      0.08418603	      4.61928226	     -3.43823594	     -4.98931787	      0.34270262	      0.00598129	      9.29790450	     -3.01882934	     -7.49999987	      9.32245328	      1.81121451	     12.61157712	      0.92382507	      0.01612379	      4.08066887	      0.72682734	     -7.49999987	      4.36655765	     -4.29302471	     11.87311255	     -2.67312739	     -4.79130401	      2.19705351	     28.01473949	     92.32101339	     -0.89788844	     -6.21072609	    -15.64487842	     26.60176651	     91.00063761
      2.71666670	     -3.85765986	      0.61074042	     19.02906833	     -0.13159092	      1.13797549	      0.08391637	      4.58279538	     -3.52871163	     -4.52135413	      0.35801735	      0.00624858	      9.54311765	     -2.68623936	     -7.49999987	      9.17502377	      1.87096763	     12.55797841	      1.23769010	      0.02160177	      4.26457319	      0.34312045	     -7.49999987	      4.24305806	     -4.27926477	     11.79182554	     -2.52390598	     -4.72657693	      2.38867893	     27.96254775	     91.42473062	     -0.53465465	     -6.32052735	    -15.38780537	     26.99353371	     90.21194973
      2.73333330	     -3.34766779	      0.87608393	     18.53562538	     -0.13106800	      1.14084996	      0.08277822	      4.04407746	     -3.64874390	     -4.27911131	      0.38123868	      0.00665387	      9.37592450	     -2.54218576	     -7.49999987	      8.71760967	      1.93954718	     12.35080650	      1.50616373	      0.02628752	      4.15378777	     -0.01583668	     -7.49999987	      3.65988306	     -4.25291370	     11.54358532	     -2.27444305	     -4.70566394	      2.54161414	     28.08851710	     90.54983544	     -0.16851676	     -6.38977501	    -14.98362935	     27.41386353	     89.49347325
      2.75000000	     -3.19207666	      1.11785730	     18.00593835	     -0.12780976	      1.14034956	      0.08263816	      3.89156987	     -3.84182844	     -3.94373672	      0.40250945	      0.00702512	      9.47318069	     -2.25698805	     -7.49999987	      8.60398149	      2.09178531	     12.09199992	      1.94841753	      0.03400630	      4.35980593	     -0.37018191	     -7.49999987	      3.63058408	     -4.31884208	     11.32869138	     -2.26013577	     -4.57135191	      2.58049031	     28.15000285	     90.59090531	     -0.01218353	     -6.48392615	    -14.85338164	     27.53876603	     89.56223193
      2.76666670	     -2.60333523	      1.32753772	     17.51236536	     -0.12894035	      1.14171229	      0.08242611	      3.28154414	     -3.88294095	     -3.95744876	      0.42979969	      0.00750142	      9.69254461	     -1.54394222	     -7.49999987	      8.00986513	      2.09720273	     11.85948093	      2.18780846	      0.03818446	      4.48728921	     -0.57307593	     -7.49999987	      3.06156598	     -4.16280750	     11.23912038	     -2.14748194	     -4.63606120	      2.53548656	     28.25637089	     91.56955452	      0.31352122	     -6.65998819	    -13.33779338	     27.60683700	     90.75385511
      2.78333330	     -2.15795812	      1.50803929	     16.98143275	     -0.13127647	      1.14569594	      0.08375039	      2.87639853	     -3.92984082	     -3.77243113	      0.47104614	      0.00822131	      9.63068735	     -1.34125295	     -7.49999987	      7.66795715	      2.13502375	     11.67674582	      2.50905225	      0.04379122	      4.45149450	     -1.04746766	     -7.49999987	      2.54911132	     -4.03606357	     10.90690856	     -1.90351874	     -4.65256967	      2.84552405	     28.40899633	     90.34090679	      0.39741650	     -6.69437246	    -12.88174452	     27.70548312	     89.60546602
      2.80000000	     -1.89870020	      1.58764521	     16.31110228	     -0.13469911	      1.14201777	      0.08485485	      2.80294430	     -3.95035720	     -3.53231397	      0.57669715	      0.01006526	      9.49683176	     -1.14893816	     -7.49999987	      7.59192379	      2.14179522	     11.32157527	      2.92125580	      0.05098553	      4.58087993	     -1.37275233	     -7.49999987	      2.32885342	     -3.85354329	     10.68017289	     -1.65437403	     -4.66325092	      2.83958010	     28.49258886	     90.37272505	      0.49911846	     -6.62516374	    -12.79754126	     27.65215643	     89.65635890
      2.81666670	     -1.26429421	      1.74592055	     15.63683968	     -0.13494682	      1.14469926	      0.08579091	      2.32084135	     -3.93031688	     -3.30496077	      0.71853541	      0.01254081	      9.37421119	     -1.16143371	     -7.49999987	      7.07584721	      2.11113430	     11.08715063	      3.19614331	      0.05578322	      4.66399598	     -1.59276910	     -7.49999987	      1.35067565	     -3.64015066	     10.24681805	     -1.10886575	     -4.74412991	      2.91726986	     28.65125716	     91.80905901	      0.77305039	     -6.66116143	    -12.20501986	     27.35591314	     91.01903996
      2.83333330	     -0.83170275	      1.82038857	     14.83177796	     -0.13626127	      1.14630892	      0.08716559	      2.16541402	     -3.87461247	     -2.85399571	      0.95397683	      0.01665004	      9.42101399	     -0.94548964	     -7.49999987	      6.80203469	      2.03227612	     10.89513714	      3.50405769	      0.06115734	      4.67852629	     -2.11232065	     -7.49999987	      0.57051524	     -3.43264720	      9.81788588	     -0.59556346	     -4.71726648	      3.78214496	     28.81388017	     82.56657925	      0.85314214	     -6.56887467	    -11.34210683	     27.24243134	     81.81586330
      2.85000000	     -0.60561323	      1.92105542	     14.15783279	     -0.13340494	      1.15004028	      0.08720358	      2.19779451	     -3.89839975	     -2.49351421	      1.15112517	      0.02009092	      9.67363516	     -0.53816966	     -7.49999987	      6.69378392	      2.02204243	     10.53961912	      3.84532177	      0.06711353	      4.56517039	     -2.31429262	     -7.49999987	      0.15733734	     -3.33112027	      9.42620557	     -0.40773928	     -4.71885556	      3.22690411	     29.02323248	     91.09844762	      0.86877196	     -6.85284224	    -10.46909719	     26.75238550	     90.40138625
